<svg xmlns="http://www.w3.org/2000/svg" xmlns:xlink="http://www.w3.org/1999/xlink" version="1.1"
    viewBox="0 0 10.42092030505901 3.134925762435972">
    <g transform="matrix(1,0,0,1,3.4309216581497606,1.039020498405486)">
        <rect width="10.42092030505901" height="10.42092030505901" x="-3.430921658149761"
            y="-4.682017769717005" fill="#ffffff" />
        <g clip-path="url(#SvgjsClipPath1002)">
            <g
                clip-path="url(#a4fc08157-74c4-49c1-b968-d53d14cc2142c0c02168-45a7-4524-b650-02b6c8f03fc8)">
                <path
                    d=" M -0.7549886832480377 0.5284462742248102 C -0.7549886832480377 1.140617316108914 -1.2512812493604872 1.636912476496237 -1.8634522912445912 1.636912476496237 C -2.4756259274035686 1.636912476496237 -2.971928870615512 1.140617316108914 -2.971928870615512 0.5284462742248102 C -2.971928870615512 -0.08373255048391398 -2.4756259274035686 -0.5800277108712368 -1.8634522912445912 -0.5800277108712368 C -1.2512812493604872 -0.5800277108712368 -0.7549886832480377 -0.08373255048391398 -0.7549886832480377 0.5284462742248102"
                    fill="#bab9b4" transform="matrix(1,0,0,1,0,0)" fill-rule="nonzero" />
            </g>
            <g
                clip-path="url(#a4fc08157-74c4-49c1-b968-d53d14cc2142c0c02168-45a7-4524-b650-02b6c8f03fc8)">
                <path
                    d=" M -2.7306172047133477 0.7861900771753021 C -2.694546406873128 0.8339065749223646 -2.6265764051891702 0.8434042152340047 -2.5788599074421077 0.8073308231189116 L -2.268722129147753 0.57307817914736 L -1.8053145913309463 0.8378602498294772 L -1.6945831569081842 0.7541819137868795 L -1.990224127209793 0.3627732865324732 L -1.8264579315494296 0.23910160904102473 L -1.643320285409138 0.3387113870813775 L -1.5782688429577931 0.28955247250468596 L -1.7743778634652518 0.029943385920195298 L -1.8233162646777015 -0.03488494889203442 L -2.1042866105700435 0.17737862125229487 L -2.2779655305217963 -0.20327673665172985 L -2.3756503566060614 -0.12957857604723083 L -2.3716629561255944 0.37929362892649776 L -2.7094764587697378 0.6344690997522906 C -2.757231870639902 0.670503577744282 -2.7667269166766686 0.7384735794282395 -2.7306172047133477 0.7861900771753021"
                    fill="#4e888f" transform="matrix(1,0,0,1,0,0)" fill-rule="nonzero" />
            </g>
            <g
                clip-path="url(#a4fc08157-74c4-49c1-b968-d53d14cc2142c0c02168-45a7-4524-b650-02b6c8f03fc8)">
                <path
                    d=" M -1.7079903694540888 -0.0021166629656961256 L -1.6335320863116738 0.09553703182008788 C -1.5952613433787826 0.06564320245351363 -1.5512027732032616 0.032143331012866816 -1.5006455444697895 -0.004145385916721089 C -1.4145649098943922 -0.06576460271051365 -1.3117356367361084 -0.13387988378738375 -1.1972736350453488 -0.19722429337200958 C -1.0830788436665528 -0.26011211057891115 -0.9563355447249591 -0.32000354030699696 -0.8274156491645548 -0.3541623575654959 C -0.7634667735344189 -0.3708642992006608 -0.6979872757289569 -0.380709572345341 -0.64195612701254 -0.3743146847823274 C -0.5850481133889032 -0.36776673500178125 -0.5471327861136723 -0.3454326226163922 -0.5286641432896988 -0.3038645563193672 C -0.5094301893780631 -0.2615337732095527 -0.511811733711875 -0.2013881045438703 -0.5227258481044097 -0.14662036769081566 C -0.5337878361647306 -0.09104062280237624 -0.55276755113877 -0.038052558512497 -0.5723621092578131 0.010115343062542914 C -0.6125578041467921 0.10655491720755994 -0.6564685006545274 0.1843131179889823 -0.6861106853583787 0.23933509377963347 C -0.7161056914450166 0.29430258979794255 -0.732553394142585 0.32698785892833127 -0.7264127455171678 0.33165755370051175 C -0.7205756270519426 0.33612489503256404 -0.6924484988741764 0.3124210055140022 -0.6500736130915139 0.26455922837402746 C -0.6080437658670172 0.21649250351905158 -0.5512032033900898 0.1445714212028546 -0.4959788741593103 0.047322433297326216 C -0.4688687017319304 -0.0015562995930344936 -0.4416599468593603 -0.056630160881154246 -0.42192529789715083 -0.12093704644382391 C -0.40369792263640747 -0.18469135145845234 -0.3871542317685215 -0.2606698796766993 -0.4144044950390673 -0.34680239974956506 C -0.4281671232426323 -0.3891850683568482 -0.45729564152154323 -0.43070643770615136 -0.495571573004181 -0.45892436550448756 C -0.5337359506672614 -0.4875521887328263 -0.5775402819051862 -0.5030815181251993 -0.6194637638598719 -0.5113053694739835 C -0.7040267476343098 -0.5271927087988902 -0.7843221492419503 -0.5188183895074469 -0.8607053843404531 -0.5049104819109699 C -1.0134900144615726 -0.47521641170965 -1.1534796809069177 -0.418370660682975 -1.280111426028954 -0.35817310651982404 C -1.4065978917580777 -0.2974177832588848 -1.5191245643932558 -0.23118075719038061 -1.613379759094842 -0.17072896408963312 C -1.663183829228777 -0.13863931781905864 -1.7122616980450334 -0.10543635209211949 -1.7605763211385739 -0.07114512879802293 Z"
                    fill="#404040" transform="matrix(1,0,0,1,0,0)" fill-rule="nonzero" />
            </g>
        </g>
        <g>
            <path
                d=" M 0.78955078125 0.45263671875 Q 0.80126953125 0.45263671875 0.812255859375 0.45556640625 Q 0.8232421875 0.45849609375 0.83203125 0.463623046875 Q 0.8408203125 0.46875 0.845947265625 0.4757080078125 Q 0.85107421875 0.482666015625 0.85107421875 0.489990234375 Q 0.85107421875 0.501708984375 0.83642578125 0.5137939453125 Q 0.82177734375 0.52587890625 0.785888671875 0.5361328125 Q 0.75 0.54638671875 0.6903076171875 0.552978515625 Q 0.630615234375 0.5595703125 0.539794921875 0.5595703125 Q 0.49072265625 0.5595703125 0.4423828125 0.5731201171875 Q 0.39404296875 0.586669921875 0.35595703125 0.613037109375 Q 0.31787109375 0.639404296875 0.2940673828125 0.677490234375 Q 0.270263671875 0.715576171875 0.270263671875 0.7646484375 Q 0.270263671875 0.80419921875 0.2816162109375 0.840087890625 Q 0.29296875 0.8759765625 0.3160400390625 0.903076171875 Q 0.339111328125 0.93017578125 0.3739013671875 0.9462890625 Q 0.40869140625 0.96240234375 0.456298828125 0.96240234375 Q 0.55224609375 0.96240234375 0.615966796875 0.9510498046875 Q 0.6796875 0.939697265625 0.7225341796875 0.9224853515625 Q 0.765380859375 0.9052734375 0.7928466796875 0.885498046875 Q 0.8203125 0.86572265625 0.8441162109375 0.8485107421875 Q 0.867919921875 0.831298828125 0.8931884765625 0.8199462890625 Q 0.91845703125 0.80859375 0.95654296875 0.80859375 Q 0.9873046875 0.80859375 1.0048828125 0.8236083984375 Q 1.0224609375 0.838623046875 1.0224609375 0.866455078125 Q 1.0224609375 0.885498046875 1.0023193359375 0.908935546875 Q 0.982177734375 0.932373046875 0.9451904296875 0.9569091796875 Q 0.908203125 0.9814453125 0.856201171875 1.004150390625 Q 0.80419921875 1.02685546875 0.740478515625 1.0447998046875 Q 0.6767578125 1.062744140625 0.603515625 1.07373046875 Q 0.5302734375 1.084716796875 0.451171875 1.084716796875 Q 0.378662109375 1.084716796875 0.31494140625 1.0653076171875 Q 0.251220703125 1.0458984375 0.20361328125 1.007080078125 Q 0.156005859375 0.96826171875 0.1285400390625 0.9100341796875 Q 0.10107421875 0.851806640625 0.10107421875 0.7734375 Q 0.10107421875 0.7060546875 0.1318359375 0.6507568359375 Q 0.16259765625 0.595458984375 0.2156982421875 0.5537109375 Q 0.268798828125 0.511962890625 0.3394775390625 0.48486328125 Q 0.41015625 0.457763671875 0.489990234375 0.447509765625 Q 0.428466796875 0.4013671875 0.403564453125 0.3570556640625 Q 0.378662109375 0.312744140625 0.378662109375 0.26953125 Q 0.378662109375 0.22705078125 0.39990234375 0.1907958984375 Q 0.421142578125 0.154541015625 0.4581298828125 0.12451171875 Q 0.4951171875 0.094482421875 0.544189453125 0.0714111328125 Q 0.59326171875 0.04833984375 0.649658203125 0.0325927734375 Q 0.7060546875 0.016845703125 0.7664794921875 0.0084228515625 Q 0.826904296875 0 0.885498046875 0 Q 0.945556640625 0 0.9993896484375 0.012451171875 Q 1.05322265625 0.02490234375 1.095703125 0.05126953125 Q 1.13818359375 0.07763671875 1.165283203125 0.117919921875 Q 1.1923828125 0.158203125 1.1982421875 0.213134765625 Q 1.1982421875 0.228515625 1.19091796875 0.24462890625 Q 1.18359375 0.2607421875 1.1685791015625 0.2742919921875 Q 1.153564453125 0.287841796875 1.1319580078125 0.2962646484375 Q 1.1103515625 0.3046875 1.081787109375 0.3046875 Q 1.06640625 0.3046875 1.0572509765625 0.301025390625 Q 1.048095703125 0.29736328125 1.0433349609375 0.290771484375 Q 1.03857421875 0.2841796875 1.0374755859375 0.2750244140625 Q 1.036376953125 0.265869140625 1.036376953125 0.2548828125 Q 1.036376953125 0.220458984375 1.0283203125 0.195556640625 Q 1.020263671875 0.170654296875 1.0015869140625 0.1549072265625 Q 0.98291015625 0.13916015625 0.952880859375 0.1314697265625 Q 0.9228515625 0.123779296875 0.878173828125 0.123779296875 Q 0.82470703125 0.123779296875 0.766845703125 0.1351318359375 Q 0.708984375 0.146484375 0.66064453125 0.1680908203125 Q 0.6123046875 0.189697265625 0.5811767578125 0.2197265625 Q 0.550048828125 0.249755859375 0.550048828125 0.287109375 Q 0.550048828125 0.3310546875 0.5701904296875 0.362548828125 Q 0.59033203125 0.39404296875 0.6236572265625 0.4141845703125 Q 0.656982421875 0.434326171875 0.7001953125 0.4434814453125 Q 0.743408203125 0.45263671875 0.78955078125 0.45263671875 M 1.083984375 0.532470703125 Q 1.102294921875 0.532470703125 1.115478515625 0.535400390625 Q 1.128662109375 0.538330078125 1.137451171875 0.5482177734375 Q 1.146240234375 0.55810546875 1.150634765625 0.5745849609375 Q 1.155029296875 0.591064453125 1.155029296875 0.617431640625 L 1.155029296875 0.70166015625 L 1.317626953125 0.5654296875 Q 1.35498046875 0.53466796875 1.392333984375 0.53466796875 Q 1.414306640625 0.53466796875 1.428955078125 0.544921875 Q 1.443603515625 0.55517578125 1.443603515625 0.572021484375 Q 1.443603515625 0.582275390625 1.4366455078125 0.593994140625 Q 1.4296875 0.605712890625 1.415771484375 0.617431640625 L 1.172607421875 0.822509765625 L 1.181396484375 0.922119140625 Q 1.181396484375 0.9580078125 1.20703125 0.9580078125 Q 1.23486328125 0.9580078125 1.276611328125 0.9371337890625 Q 1.318359375 0.916259765625 1.373291015625 0.876708984375 L 1.45751953125 0.815185546875 Q 1.470703125 0.80712890625 1.484619140625 0.80712890625 Q 1.5 0.80712890625 1.5098876953125 0.8177490234375 Q 1.519775390625 0.828369140625 1.519775390625 0.84521484375 Q 1.519775390625 0.863525390625 1.5062255859375 0.8876953125 Q 1.49267578125 0.911865234375 1.45751953125 0.93603515625 Q 1.402587890625 0.974853515625 1.3612060546875 1.001220703125 Q 1.31982421875 1.027587890625 1.2857666015625 1.0440673828125 Q 1.251708984375 1.060546875 1.2227783203125 1.06787109375 Q 1.19384765625 1.0751953125 1.16455078125 1.0751953125 Q 1.0986328125 1.0751953125 1.0660400390625 1.037841796875 Q 1.033447265625 1.00048828125 1.033447265625 0.9169921875 L 0.873779296875 1.0546875 Q 0.85986328125 1.065673828125 0.8455810546875 1.0704345703125 Q 0.831298828125 1.0751953125 0.81884765625 1.0751953125 Q 0.79541015625 1.0751953125 0.779296875 1.062744140625 Q 0.76318359375 1.05029296875 0.76318359375 1.031982421875 Q 0.76318359375 1.011474609375 0.78955078125 0.99169921875 L 1.01513671875 0.79541015625 L 1.01513671875 0.617431640625 Q 1.01513671875 0.58447265625 1.025390625 0.56689453125 Q 1.03564453125 0.54931640625 1.048095703125 0.5416259765625 Q 1.060546875 0.533935546875 1.071533203125 0.533203125 Q 1.08251953125 0.532470703125 1.083984375 0.532470703125 M 2.2265625 0.712646484375 Q 2.23681640625 0.706787109375 2.24560546875 0.703125 Q 2.25439453125 0.699462890625 2.262451171875 0.699462890625 Q 2.278564453125 0.699462890625 2.28662109375 0.7115478515625 Q 2.294677734375 0.7236328125 2.294677734375 0.7412109375 Q 2.294677734375 0.76025390625 2.2847900390625 0.780029296875 Q 2.27490234375 0.7998046875 2.255126953125 0.81298828125 Q 2.1767578125 0.87158203125 2.115234375 0.919921875 Q 2.0537109375 0.96826171875 1.9991455078125 1.0030517578125 Q 1.944580078125 1.037841796875 1.892578125 1.056884765625 Q 1.840576171875 1.075927734375 1.78125 1.075927734375 Q 1.7255859375 1.075927734375 1.6951904296875 1.055419921875 Q 1.664794921875 1.034912109375 1.664794921875 0.9990234375 Q 1.664794921875 0.99609375 1.664794921875 0.9935302734375 Q 1.664794921875 0.990966796875 1.66552734375 0.9873046875 Q 1.66845703125 0.96533203125 1.688232421875 0.936767578125 Q 1.7080078125 0.908203125 1.73583984375 0.87744140625 Q 1.763671875 0.8466796875 1.795166015625 0.815185546875 Q 1.82666015625 0.78369140625 1.8533935546875 0.7554931640625 Q 1.880126953125 0.727294921875 1.897705078125 0.703857421875 Q 1.915283203125 0.680419921875 1.915283203125 0.665771484375 Q 1.915283203125 0.656982421875 1.907958984375 0.65185546875 Q 1.900634765625 0.646728515625 1.8837890625 0.646728515625 Q 1.8544921875 0.646728515625 1.8233642578125 0.6595458984375 Q 1.792236328125 0.67236328125 1.7618408203125 0.6939697265625 Q 1.7314453125 0.715576171875 1.7025146484375 0.743408203125 Q 1.673583984375 0.771240234375 1.6483154296875 0.80126953125 Q 1.623046875 0.831298828125 1.6021728515625 0.8616943359375 Q 1.581298828125 0.89208984375 1.566650390625 0.917724609375 Q 1.562255859375 0.92578125 1.55419921875 0.9404296875 Q 1.546142578125 0.955078125 1.53662109375 0.973388671875 Q 1.527099609375 0.99169921875 1.5164794921875 1.0111083984375 Q 1.505859375 1.030517578125 1.4970703125 1.0477294921875 Q 1.48828125 1.06494140625 1.4813232421875 1.0784912109375 Q 1.474365234375 1.092041015625 1.471435546875 1.09716796875 Q 1.4677734375 1.103759765625 1.4593505859375 1.1220703125 Q 1.450927734375 1.140380859375 1.43994140625 1.1649169921875 Q 1.428955078125 1.189453125 1.4168701171875 1.216552734375 Q 1.40478515625 1.24365234375 1.3941650390625 1.267822265625 Q 1.383544921875 1.2919921875 1.37548828125 1.310302734375 Q 1.367431640625 1.32861328125 1.365234375 1.335205078125 Q 1.35791015625 1.354248046875 1.3480224609375 1.37109375 Q 1.338134765625 1.387939453125 1.3253173828125 1.4007568359375 Q 1.3125 1.41357421875 1.2960205078125 1.4212646484375 Q 1.279541015625 1.428955078125 1.259033203125 1.428955078125 Q 1.232666015625 1.428955078125 1.2154541015625 1.4183349609375 Q 1.1982421875 1.40771484375 1.1982421875 1.377685546875 Q 1.1982421875 1.363037109375 1.20263671875 1.34765625 Q 1.20703125 1.332275390625 1.213623046875 1.3172607421875 Q 1.22021484375 1.30224609375 1.2271728515625 1.2879638671875 Q 1.234130859375 1.273681640625 1.239990234375 1.260498046875 Q 1.279541015625 1.187255859375 1.320556640625 1.1136474609375 Q 1.361572265625 1.0400390625 1.3992919921875 0.9678955078125 Q 1.43701171875 0.895751953125 1.46923828125 0.826171875 Q 1.50146484375 0.756591796875 1.522705078125 0.69287109375 Q 1.528564453125 0.6796875 1.538818359375 0.655517578125 Q 1.549072265625 0.63134765625 1.562255859375 0.60791015625 Q 1.575439453125 0.58447265625 1.5919189453125 0.5672607421875 Q 1.6083984375 0.550048828125 1.62744140625 0.550048828125 Q 1.65673828125 0.550048828125 1.669921875 0.5614013671875 Q 1.68310546875 0.57275390625 1.68310546875 0.5947265625 Q 1.68310546875 0.59912109375 1.681640625 0.608642578125 Q 1.68017578125 0.6181640625 1.677978515625 0.6287841796875 Q 1.67578125 0.639404296875 1.6732177734375 0.64892578125 Q 1.670654296875 0.658447265625 1.66845703125 0.662841796875 Q 1.695556640625 0.637939453125 1.72705078125 0.6134033203125 Q 1.758544921875 0.5888671875 1.792236328125 0.569091796875 Q 1.825927734375 0.54931640625 1.861083984375 0.536865234375 Q 1.896240234375 0.5244140625 1.931396484375 0.5244140625 Q 1.95556640625 0.5244140625 1.9793701171875 0.5302734375 Q 2.003173828125 0.5361328125 2.0218505859375 0.5474853515625 Q 2.04052734375 0.558837890625 2.05224609375 0.5760498046875 Q 2.06396484375 0.59326171875 2.06396484375 0.615966796875 Q 2.06396484375 0.64599609375 2.0460205078125 0.6800537109375 Q 2.028076171875 0.714111328125 2.0009765625 0.74853515625 Q 1.973876953125 0.782958984375 1.9423828125 0.8155517578125 Q 1.910888671875 0.84814453125 1.8834228515625 0.8748779296875 Q 1.85595703125 0.901611328125 1.8372802734375 0.9202880859375 Q 1.818603515625 0.93896484375 1.81787109375 0.945556640625 Q 1.81787109375 0.954345703125 1.824462890625 0.9598388671875 Q 1.8310546875 0.96533203125 1.846435546875 0.96533203125 Q 1.85888671875 0.96533203125 1.883056640625 0.95361328125 Q 1.9072265625 0.94189453125 1.9508056640625 0.9129638671875 Q 1.994384765625 0.884033203125 2.0614013671875 0.8353271484375 Q 2.12841796875 0.78662109375 2.2265625 0.712646484375 M 2.29248046875 0.84521484375 Q 2.284423828125 0.862060546875 2.2767333984375 0.8843994140625 Q 2.26904296875 0.90673828125 2.26904296875 0.92431640625 Q 2.26904296875 0.935302734375 2.2734375 0.94189453125 Q 2.27783203125 0.948486328125 2.290283203125 0.948486328125 Q 2.3056640625 0.948486328125 2.3287353515625 0.9393310546875 Q 2.351806640625 0.93017578125 2.3785400390625 0.9151611328125 Q 2.4052734375 0.900146484375 2.4342041015625 0.8807373046875 Q 2.463134765625 0.861328125 2.49169921875 0.8404541015625 Q 2.520263671875 0.819580078125 2.5462646484375 0.7987060546875 Q 2.572265625 0.77783203125 2.5927734375 0.76025390625 Q 2.5986328125 0.755126953125 2.606689453125 0.7529296875 Q 2.61474609375 0.750732421875 2.62060546875 0.750732421875 Q 2.63525390625 0.750732421875 2.644775390625 0.760986328125 Q 2.654296875 0.771240234375 2.654296875 0.7880859375 Q 2.654296875 0.803466796875 2.64404296875 0.822509765625 Q 2.6337890625 0.841552734375 2.608154296875 0.85986328125 Q 2.561279296875 0.903076171875 2.513671875 0.94189453125 Q 2.466064453125 0.980712890625 2.4188232421875 1.0103759765625 Q 2.37158203125 1.0400390625 2.3250732421875 1.0576171875 Q 2.278564453125 1.0751953125 2.234619140625 1.0751953125 Q 2.20458984375 1.0751953125 2.1844482421875 1.067138671875 Q 2.164306640625 1.05908203125 2.1522216796875 1.045166015625 Q 2.14013671875 1.03125 2.135009765625 1.01220703125 Q 2.1298828125 0.9931640625 2.1298828125 0.971923828125 Q 2.1298828125 0.93603515625 2.1405029296875 0.8983154296875 Q 2.151123046875 0.860595703125 2.165771484375 0.8291015625 Q 2.19140625 0.77197265625 2.2177734375 0.715576171875 Q 2.244140625 0.6591796875 2.26611328125 0.6123046875 L 2.488037109375 0.139892578125 Q 2.501220703125 0.111328125 2.5235595703125 0.099609375 Q 2.5458984375 0.087890625 2.568603515625 0.087890625 Q 2.59130859375 0.087890625 2.6099853515625 0.100341796875 Q 2.628662109375 0.11279296875 2.628662109375 0.140625 Q 2.628662109375 0.15380859375 2.6224365234375 0.16845703125 Q 2.6162109375 0.18310546875 2.606689453125 0.199951171875 Q 2.58837890625 0.234375 2.5631103515625 0.2841796875 Q 2.537841796875 0.333984375 2.5089111328125 0.392578125 Q 2.47998046875 0.451171875 2.4495849609375 0.5145263671875 Q 2.419189453125 0.577880859375 2.3902587890625 0.637939453125 Q 2.361328125 0.697998046875 2.3360595703125 0.7518310546875 Q 2.310791015625 0.8056640625 2.29248046875 0.84521484375 M 2.836669921875 0.6533203125 Q 2.80224609375 0.6533203125 2.7703857421875 0.6705322265625 Q 2.738525390625 0.687744140625 2.7139892578125 0.7159423828125 Q 2.689453125 0.744140625 2.6748046875 0.7796630859375 Q 2.66015625 0.815185546875 2.66015625 0.8525390625 Q 2.66015625 0.866455078125 2.662353515625 0.8829345703125 Q 2.66455078125 0.8994140625 2.6715087890625 0.9136962890625 Q 2.678466796875 0.927978515625 2.691650390625 0.9375 Q 2.704833984375 0.947021484375 2.726806640625 0.947021484375 Q 2.760498046875 0.947021484375 2.7923583984375 0.9290771484375 Q 2.82421875 0.9111328125 2.84912109375 0.8822021484375 Q 2.8740234375 0.853271484375 2.888671875 0.816650390625 Q 2.9033203125 0.780029296875 2.9033203125 0.74267578125 Q 2.9033203125 0.72802734375 2.9014892578125 0.7122802734375 Q 2.899658203125 0.696533203125 2.8927001953125 0.683349609375 Q 2.8857421875 0.670166015625 2.87255859375 0.6617431640625 Q 2.859375 0.6533203125 2.836669921875 0.6533203125 M 2.874755859375 0.5244140625 Q 2.902587890625 0.5244140625 2.9344482421875 0.53173828125 Q 2.96630859375 0.5390625 2.993408203125 0.556640625 Q 3.0205078125 0.57421875 3.0384521484375 0.6031494140625 Q 3.056396484375 0.632080078125 3.056396484375 0.674560546875 Q 3.056396484375 0.696533203125 3.050537109375 0.7247314453125 Q 3.044677734375 0.7529296875 3.032958984375 0.78369140625 Q 3.040283203125 0.79248046875 3.0498046875 0.796142578125 Q 3.059326171875 0.7998046875 3.0703125 0.7998046875 Q 3.085693359375 0.7998046875 3.1043701171875 0.791015625 Q 3.123046875 0.7822265625 3.142822265625 0.768310546875 Q 3.16259765625 0.75439453125 3.182373046875 0.73681640625 Q 3.2021484375 0.71923828125 3.2197265625 0.70166015625 Q 3.2373046875 0.68408203125 3.2515869140625 0.6683349609375 Q 3.265869140625 0.652587890625 3.275390625 0.6416015625 Q 3.280517578125 0.636474609375 3.287841796875 0.636474609375 Q 3.298095703125 0.636474609375 3.30615234375 0.6470947265625 Q 3.314208984375 0.65771484375 3.314208984375 0.6767578125 Q 3.314208984375 0.69580078125 3.3028564453125 0.720703125 Q 3.29150390625 0.74560546875 3.2607421875 0.772705078125 Q 3.2431640625 0.791748046875 3.220458984375 0.816650390625 Q 3.19775390625 0.841552734375 3.172119140625 0.863525390625 Q 3.146484375 0.885498046875 3.11865234375 0.90087890625 Q 3.0908203125 0.916259765625 3.06298828125 0.916259765625 Q 3.0439453125 0.916259765625 3.0260009765625 0.910400390625 Q 3.008056640625 0.904541015625 2.98974609375 0.891357421875 Q 2.96337890625 0.932373046875 2.9296875 0.966064453125 Q 2.89599609375 0.999755859375 2.8546142578125 1.02392578125 Q 2.813232421875 1.048095703125 2.7652587890625 1.0616455078125 Q 2.71728515625 1.0751953125 2.6630859375 1.0751953125 Q 2.642578125 1.0751953125 2.615478515625 1.067138671875 Q 2.58837890625 1.05908203125 2.5638427734375 1.0404052734375 Q 2.539306640625 1.021728515625 2.5224609375 0.99169921875 Q 2.505615234375 0.961669921875 2.505615234375 0.91845703125 Q 2.505615234375 0.88916015625 2.51513671875 0.84814453125 Q 2.524658203125 0.80712890625 2.5440673828125 0.7635498046875 Q 2.5634765625 0.719970703125 2.5931396484375 0.6771240234375 Q 2.622802734375 0.63427734375 2.663818359375 0.6002197265625 Q 2.704833984375 0.566162109375 2.757568359375 0.5452880859375 Q 2.810302734375 0.5244140625 2.874755859375 0.5244140625 M 3.432861328125 0.6298828125 Q 3.46142578125 0.6123046875 3.4918212890625 0.59765625 Q 3.522216796875 0.5830078125 3.55078125 0.5723876953125 Q 3.579345703125 0.561767578125 3.6053466796875 0.5555419921875 Q 3.63134765625 0.54931640625 3.65185546875 0.54931640625 Q 3.684814453125 0.54931640625 3.7027587890625 0.5650634765625 Q 3.720703125 0.580810546875 3.720703125 0.6181640625 Q 3.720703125 0.626220703125 3.719970703125 0.6353759765625 Q 3.71923828125 0.64453125 3.717041015625 0.65478515625 Q 3.71337890625 0.673828125 3.695068359375 0.699462890625 Q 3.6767578125 0.72509765625 3.6522216796875 0.7529296875 Q 3.627685546875 0.78076171875 3.5994873046875 0.8089599609375 Q 3.5712890625 0.837158203125 3.5474853515625 0.8609619140625 Q 3.523681640625 0.884765625 3.5079345703125 0.90234375 Q 3.4921875 0.919921875 3.4921875 0.926513671875 Q 3.4921875 0.932373046875 3.492919921875 0.9345703125 Q 3.49365234375 0.936767578125 3.49951171875 0.936767578125 Q 3.5390625 0.919921875 3.5877685546875 0.8961181640625 Q 3.636474609375 0.872314453125 3.684814453125 0.847412109375 Q 3.733154296875 0.822509765625 3.7763671875 0.7987060546875 Q 3.819580078125 0.77490234375 3.849609375 0.75732421875 Q 3.856201171875 0.753662109375 3.8631591796875 0.7510986328125 Q 3.8701171875 0.74853515625 3.8759765625 0.74853515625 Q 3.88916015625 0.74853515625 3.89794921875 0.75732421875 Q 3.90673828125 0.76611328125 3.90673828125 0.78076171875 Q 3.90673828125 0.797607421875 3.8924560546875 0.8192138671875 Q 3.878173828125 0.8408203125 3.844482421875 0.8642578125 Q 3.81884765625 0.88037109375 3.7869873046875 0.9005126953125 Q 3.755126953125 0.920654296875 3.7203369140625 0.9422607421875 Q 3.685546875 0.9638671875 3.6500244140625 0.984375 Q 3.614501953125 1.0048828125 3.58154296875 1.02099609375 Q 3.548583984375 1.037109375 3.5196533203125 1.0469970703125 Q 3.49072265625 1.056884765625 3.469482421875 1.056884765625 Q 3.4189453125 1.056884765625 3.3936767578125 1.03271484375 Q 3.368408203125 1.008544921875 3.368408203125 0.970458984375 Q 3.368408203125 0.964599609375 3.369140625 0.961669921875 Q 3.374267578125 0.929443359375 3.38818359375 0.8994140625 Q 3.402099609375 0.869384765625 3.419677734375 0.84228515625 Q 3.437255859375 0.815185546875 3.456298828125 0.7906494140625 Q 3.475341796875 0.76611328125 3.4910888671875 0.7445068359375 Q 3.5068359375 0.722900390625 3.51708984375 0.70458984375 Q 3.52734375 0.686279296875 3.52734375 0.6708984375 Q 3.52734375 0.667236328125 3.52587890625 0.66357421875 Q 3.5244140625 0.659912109375 3.519287109375 0.659912109375 Q 3.510498046875 0.659912109375 3.4903564453125 0.66650390625 Q 3.47021484375 0.673095703125 3.447509765625 0.68408203125 Q 3.4248046875 0.695068359375 3.404296875 0.7093505859375 Q 3.3837890625 0.7236328125 3.375 0.73974609375 Q 3.36328125 0.76025390625 3.347900390625 0.791748046875 Q 3.33251953125 0.8232421875 3.3160400390625 0.857666015625 Q 3.299560546875 0.89208984375 3.2841796875 0.92578125 Q 3.268798828125 0.95947265625 3.2578125 0.983642578125 Q 3.2490234375 1.0048828125 3.2347412109375 1.021728515625 Q 3.220458984375 1.03857421875 3.20361328125 1.05029296875 Q 3.186767578125 1.06201171875 3.169189453125 1.068603515625 Q 3.151611328125 1.0751953125 3.136962890625 1.0751953125 Q 3.1201171875 1.0751953125 3.1102294921875 1.06640625 Q 3.100341796875 1.0576171875 3.100341796875 1.037841796875 Q 3.100341796875 1.02978515625 3.1029052734375 1.0177001953125 Q 3.10546875 1.005615234375 3.113525390625 0.990966796875 Q 3.126708984375 0.966064453125 3.1402587890625 0.936767578125 Q 3.15380859375 0.907470703125 3.17138671875 0.8697509765625 Q 3.18896484375 0.83203125 3.2120361328125 0.7833251953125 Q 3.235107421875 0.734619140625 3.2666015625 0.6708984375 Q 3.25634765625 0.662109375 3.2493896484375 0.6492919921875 Q 3.242431640625 0.636474609375 3.242431640625 0.617431640625 Q 3.242431640625 0.599853515625 3.249755859375 0.5870361328125 Q 3.257080078125 0.57421875 3.26953125 0.566162109375 Q 3.281982421875 0.55810546875 3.2984619140625 0.5540771484375 Q 3.31494140625 0.550048828125 3.333251953125 0.550048828125 Q 3.352294921875 0.550048828125 3.371337890625 0.5533447265625 Q 3.390380859375 0.556640625 3.4053955078125 0.563232421875 Q 3.42041015625 0.56982421875 3.429931640625 0.579345703125 Q 3.439453125 0.5888671875 3.439453125 0.601318359375 Q 3.439453125 0.603515625 3.43798828125 0.607177734375 Q 3.4365234375 0.61083984375 3.4346923828125 0.615234375 Q 3.432861328125 0.61962890625 3.431396484375 0.623291015625 Q 3.429931640625 0.626953125 3.429931640625 0.629150390625 Q 3.429931640625 0.630615234375 3.4306640625 0.630615234375 L 3.431396484375 0.630615234375 L 3.432861328125 0.6298828125 M 4.09716796875 0.624755859375 Q 4.093505859375 0.6240234375 4.090576171875 0.6240234375 Q 4.087646484375 0.6240234375 4.083984375 0.6240234375 Q 4.05615234375 0.6240234375 4.031982421875 0.635009765625 Q 4.0078125 0.64599609375 3.9876708984375 0.6639404296875 Q 3.967529296875 0.681884765625 3.9517822265625 0.70458984375 Q 3.93603515625 0.727294921875 3.923583984375 0.7496337890625 Q 3.9111328125 0.77197265625 3.9027099609375 0.79248046875 Q 3.894287109375 0.81298828125 3.889892578125 0.826904296875 Q 3.91552734375 0.813720703125 3.9429931640625 0.796875 Q 3.970458984375 0.780029296875 3.99462890625 0.7646484375 Q 4.018798828125 0.749267578125 4.0367431640625 0.73681640625 Q 4.0546875 0.724365234375 4.06201171875 0.719970703125 Q 4.094970703125 0.699462890625 4.107421875 0.6815185546875 Q 4.119873046875 0.66357421875 4.119873046875 0.650390625 Q 4.119873046875 0.639404296875 4.1129150390625 0.6328125 Q 4.10595703125 0.626220703125 4.09716796875 0.624755859375 M 4.12353515625 0.523681640625 Q 4.184326171875 0.523681640625 4.21435546875 0.552978515625 Q 4.244384765625 0.582275390625 4.244384765625 0.63427734375 Q 4.244384765625 0.6650390625 4.228271484375 0.69873046875 Q 4.212158203125 0.732421875 4.172607421875 0.7672119140625 Q 4.133056640625 0.802001953125 4.0667724609375 0.8382568359375 Q 4.00048828125 0.87451171875 3.90087890625 0.9111328125 Q 3.904541015625 0.932373046875 3.923583984375 0.9444580078125 Q 3.942626953125 0.95654296875 3.97412109375 0.95654296875 Q 4.0078125 0.95654296875 4.0462646484375 0.9466552734375 Q 4.084716796875 0.936767578125 4.1224365234375 0.92138671875 Q 4.16015625 0.906005859375 4.196044921875 0.8880615234375 Q 4.23193359375 0.8701171875 4.2608642578125 0.85400390625 Q 4.289794921875 0.837890625 4.3092041015625 0.826171875 Q 4.32861328125 0.814453125 4.335205078125 0.8115234375 Q 4.341796875 0.80712890625 4.3472900390625 0.806396484375 Q 4.352783203125 0.8056640625 4.357177734375 0.8056640625 Q 4.365966796875 0.8056640625 4.371826171875 0.8096923828125 Q 4.377685546875 0.813720703125 4.3817138671875 0.8192138671875 Q 4.3857421875 0.82470703125 4.38720703125 0.8309326171875 Q 4.388671875 0.837158203125 4.388671875 0.841552734375 Q 4.388671875 0.84814453125 4.38720703125 0.8572998046875 Q 4.3857421875 0.866455078125 4.376220703125 0.878173828125 Q 4.37255859375 0.8818359375 4.3516845703125 0.89794921875 Q 4.330810546875 0.9140625 4.2978515625 0.93603515625 Q 4.264892578125 0.9580078125 4.2213134765625 0.9825439453125 Q 4.177734375 1.007080078125 4.1290283203125 1.027587890625 Q 4.080322265625 1.048095703125 4.027587890625 1.0616455078125 Q 3.974853515625 1.0751953125 3.923583984375 1.0751953125 Q 3.879638671875 1.0751953125 3.8455810546875 1.058349609375 Q 3.8115234375 1.04150390625 3.7877197265625 1.012939453125 Q 3.763916015625 0.984375 3.75146484375 0.947021484375 Q 3.739013671875 0.90966796875 3.739013671875 0.86865234375 Q 3.739013671875 0.837158203125 3.75146484375 0.7994384765625 Q 3.763916015625 0.76171875 3.787353515625 0.7236328125 Q 3.810791015625 0.685546875 3.8448486328125 0.6492919921875 Q 3.87890625 0.613037109375 3.92138671875 0.585205078125 Q 3.9638671875 0.557373046875 4.0147705078125 0.54052734375 Q 4.065673828125 0.523681640625 4.12353515625 0.523681640625 M 5.021484375 0.84814453125 Q 5.017822265625 0.862060546875 5.0137939453125 0.8800048828125 Q 5.009765625 0.89794921875 5.009765625 0.9140625 Q 5.009765625 0.9287109375 5.01416015625 0.93896484375 Q 5.0185546875 0.94921875 5.033203125 0.94921875 Q 5.052978515625 0.94921875 5.0804443359375 0.9349365234375 Q 5.10791015625 0.920654296875 5.139404296875 0.8968505859375 Q 5.1708984375 0.873046875 5.20458984375 0.8419189453125 Q 5.23828125 0.810791015625 5.271240234375 0.7774658203125 Q 5.30419921875 0.744140625 5.334228515625 0.71044921875 Q 5.3642578125 0.6767578125 5.3876953125 0.6474609375 L 5.414794921875 0.744873046875 Q 5.366455078125 0.809326171875 5.315185546875 0.86865234375 Q 5.263916015625 0.927978515625 5.2108154296875 0.973388671875 Q 5.15771484375 1.018798828125 5.104248046875 1.0458984375 Q 5.05078125 1.072998046875 4.998046875 1.072998046875 Q 4.96728515625 1.072998046875 4.9456787109375 1.0631103515625 Q 4.924072265625 1.05322265625 4.910888671875 1.0360107421875 Q 4.897705078125 1.018798828125 4.8914794921875 0.9964599609375 Q 4.88525390625 0.97412109375 4.88525390625 0.94921875 Q 4.88525390625 0.939697265625 4.885986328125 0.922119140625 Q 4.88671875 0.904541015625 4.8878173828125 0.8858642578125 Q 4.888916015625 0.8671875 4.8900146484375 0.851806640625 Q 4.89111328125 0.83642578125 4.89111328125 0.83203125 L 4.631103515625 0.84814453125 L 4.51025390625 0.849609375 Q 4.4794921875 0.916259765625 4.449462890625 0.967529296875 Q 4.436279296875 0.989501953125 4.421630859375 1.0107421875 Q 4.406982421875 1.031982421875 4.392333984375 1.0484619140625 Q 4.377685546875 1.06494140625 4.363037109375 1.0748291015625 Q 4.348388671875 1.084716796875 4.33447265625 1.084716796875 Q 4.3125 1.084716796875 4.298583984375 1.078125 Q 4.28466796875 1.071533203125 4.276611328125 1.0616455078125 Q 4.2685546875 1.0517578125 4.2652587890625 1.039306640625 Q 4.261962890625 1.02685546875 4.261962890625 1.015869140625 Q 4.261962890625 0.996826171875 4.26708984375 0.9781494140625 Q 4.272216796875 0.95947265625 4.28173828125 0.942626953125 L 4.37841796875 0.780029296875 Q 4.385009765625 0.769775390625 4.4051513671875 0.73095703125 Q 4.42529296875 0.692138671875 4.4571533203125 0.6353759765625 Q 4.489013671875 0.57861328125 4.53076171875 0.509765625 Q 4.572509765625 0.44091796875 4.6212158203125 0.3702392578125 Q 4.669921875 0.299560546875 4.7244873046875 0.23291015625 Q 4.779052734375 0.166259765625 4.8365478515625 0.1146240234375 Q 4.89404296875 0.06298828125 4.95263671875 0.0318603515625 Q 5.01123046875 0.000732421875 5.069091796875 0.000732421875 Q 5.123291015625 0.000732421875 5.1756591796875 0.034423828125 Q 5.22802734375 0.068115234375 5.275634765625 0.14501953125 Q 5.28076171875 0.1552734375 5.28076171875 0.16259765625 Q 5.28076171875 0.172119140625 5.275634765625 0.181640625 Q 5.2705078125 0.191162109375 5.2620849609375 0.198486328125 Q 5.253662109375 0.205810546875 5.243408203125 0.210205078125 Q 5.233154296875 0.214599609375 5.22216796875 0.214599609375 Q 5.208984375 0.214599609375 5.1917724609375 0.208740234375 Q 5.174560546875 0.202880859375 5.1591796875 0.183837890625 Q 5.136474609375 0.157470703125 5.1119384765625 0.1453857421875 Q 5.08740234375 0.13330078125 5.063232421875 0.13330078125 Q 5.02880859375 0.13330078125 4.992919921875 0.1527099609375 Q 4.95703125 0.172119140625 4.9207763671875 0.2054443359375 Q 4.884521484375 0.23876953125 4.8486328125 0.2823486328125 Q 4.812744140625 0.325927734375 4.779052734375 0.374267578125 Q 4.745361328125 0.422607421875 4.7138671875 0.47314453125 Q 4.682373046875 0.523681640625 4.654541015625 0.56982421875 Q 4.626708984375 0.615966796875 4.6036376953125 0.65478515625 Q 4.58056640625 0.693603515625 4.56298828125 0.719970703125 L 4.697021484375 0.719970703125 L 4.92333984375 0.703125 Q 4.929931640625 0.6884765625 4.94091796875 0.6632080078125 Q 4.951904296875 0.637939453125 4.9654541015625 0.6064453125 Q 4.97900390625 0.574951171875 4.9951171875 0.538330078125 Q 5.01123046875 0.501708984375 5.0277099609375 0.4647216796875 Q 5.044189453125 0.427734375 5.060302734375 0.3914794921875 Q 5.076416015625 0.355224609375 5.09033203125 0.324462890625 Q 5.099853515625 0.296630859375 5.1185302734375 0.284912109375 Q 5.13720703125 0.273193359375 5.158447265625 0.273193359375 Q 5.16943359375 0.273193359375 5.180419921875 0.2764892578125 Q 5.19140625 0.27978515625 5.2005615234375 0.2867431640625 Q 5.209716796875 0.293701171875 5.215576171875 0.3043212890625 Q 5.221435546875 0.31494140625 5.22216796875 0.32958984375 Q 5.22216796875 0.343505859375 5.2100830078125 0.377197265625 Q 5.197998046875 0.410888671875 5.1793212890625 0.456298828125 Q 5.16064453125 0.501708984375 5.1375732421875 0.5548095703125 Q 5.114501953125 0.60791015625 5.0921630859375 0.6610107421875 Q 5.06982421875 0.714111328125 5.05078125 0.7628173828125 Q 5.03173828125 0.8115234375 5.021484375 0.84814453125 M 5.4404296875 0.532470703125 Q 5.458740234375 0.532470703125 5.471923828125 0.535400390625 Q 5.485107421875 0.538330078125 5.493896484375 0.5482177734375 Q 5.502685546875 0.55810546875 5.507080078125 0.5745849609375 Q 5.511474609375 0.591064453125 5.511474609375 0.617431640625 L 5.511474609375 0.70166015625 L 5.674072265625 0.5654296875 Q 5.71142578125 0.53466796875 5.748779296875 0.53466796875 Q 5.770751953125 0.53466796875 5.785400390625 0.544921875 Q 5.800048828125 0.55517578125 5.800048828125 0.572021484375 Q 5.800048828125 0.582275390625 5.7930908203125 0.593994140625 Q 5.7861328125 0.605712890625 5.772216796875 0.617431640625 L 5.529052734375 0.822509765625 L 5.537841796875 0.922119140625 Q 5.537841796875 0.9580078125 5.5634765625 0.9580078125 Q 5.59130859375 0.9580078125 5.633056640625 0.9371337890625 Q 5.6748046875 0.916259765625 5.729736328125 0.876708984375 L 5.81396484375 0.815185546875 Q 5.8271484375 0.80712890625 5.841064453125 0.80712890625 Q 5.8564453125 0.80712890625 5.8663330078125 0.8177490234375 Q 5.876220703125 0.828369140625 5.876220703125 0.84521484375 Q 5.876220703125 0.863525390625 5.8626708984375 0.8876953125 Q 5.84912109375 0.911865234375 5.81396484375 0.93603515625 Q 5.759033203125 0.974853515625 5.7176513671875 1.001220703125 Q 5.67626953125 1.027587890625 5.6422119140625 1.0440673828125 Q 5.608154296875 1.060546875 5.5792236328125 1.06787109375 Q 5.55029296875 1.0751953125 5.52099609375 1.0751953125 Q 5.455078125 1.0751953125 5.4224853515625 1.037841796875 Q 5.389892578125 1.00048828125 5.389892578125 0.9169921875 L 5.230224609375 1.0546875 Q 5.21630859375 1.065673828125 5.2020263671875 1.0704345703125 Q 5.187744140625 1.0751953125 5.17529296875 1.0751953125 Q 5.15185546875 1.0751953125 5.1357421875 1.062744140625 Q 5.11962890625 1.05029296875 5.11962890625 1.031982421875 Q 5.11962890625 1.011474609375 5.14599609375 0.99169921875 L 5.37158203125 0.79541015625 L 5.37158203125 0.617431640625 Q 5.37158203125 0.58447265625 5.3818359375 0.56689453125 Q 5.39208984375 0.54931640625 5.404541015625 0.5416259765625 Q 5.4169921875 0.533935546875 5.427978515625 0.533203125 Q 5.43896484375 0.532470703125 5.4404296875 0.532470703125 M 5.9853515625 0.42333984375 Q 5.9853515625 0.406494140625 5.9915771484375 0.3885498046875 Q 5.997802734375 0.37060546875 6.01025390625 0.35595703125 Q 6.022705078125 0.34130859375 6.0413818359375 0.331787109375 Q 6.06005859375 0.322265625 6.085693359375 0.322265625 Q 6.128173828125 0.322265625 6.14501953125 0.3387451171875 Q 6.161865234375 0.355224609375 6.161865234375 0.380126953125 Q 6.161865234375 0.39404296875 6.1563720703125 0.410888671875 Q 6.15087890625 0.427734375 6.139892578125 0.4420166015625 Q 6.12890625 0.456298828125 6.111328125 0.4658203125 Q 6.09375 0.475341796875 6.069580078125 0.475341796875 Q 6.024169921875 0.475341796875 6.005859375 0.4610595703125 Q 5.987548828125 0.44677734375 5.9853515625 0.42333984375 M 5.90478515625 0.588134765625 Q 5.917236328125 0.567626953125 5.933349609375 0.558837890625 Q 5.949462890625 0.550048828125 5.96630859375 0.550048828125 Q 5.994140625 0.550048828125 6.0142822265625 0.5679931640625 Q 6.034423828125 0.5859375 6.034423828125 0.61376953125 Q 6.03369140625 0.620361328125 6.0325927734375 0.626953125 Q 6.031494140625 0.633544921875 6.02783203125 0.64013671875 Q 6.017578125 0.6591796875 6.010986328125 0.67236328125 Q 6.00439453125 0.685546875 5.9989013671875 0.6968994140625 Q 5.993408203125 0.708251953125 5.98828125 0.71923828125 Q 5.983154296875 0.730224609375 5.975830078125 0.74560546875 Q 5.967041015625 0.763916015625 5.9560546875 0.7855224609375 Q 5.945068359375 0.80712890625 5.9351806640625 0.829833984375 Q 5.92529296875 0.8525390625 5.9183349609375 0.87451171875 Q 5.911376953125 0.896484375 5.911376953125 0.914794921875 Q 5.911376953125 0.9345703125 5.9212646484375 0.9407958984375 Q 5.93115234375 0.947021484375 5.949462890625 0.947021484375 Q 5.969970703125 0.947021484375 5.9923095703125 0.938232421875 Q 6.0146484375 0.929443359375 6.037353515625 0.91552734375 Q 6.06005859375 0.901611328125 6.08203125 0.8836669921875 Q 6.10400390625 0.86572265625 6.1234130859375 0.847412109375 Q 6.142822265625 0.8291015625 6.1593017578125 0.812255859375 Q 6.17578125 0.79541015625 6.186767578125 0.7822265625 Q 6.201416015625 0.768310546875 6.216064453125 0.768310546875 Q 6.229248046875 0.768310546875 6.2376708984375 0.780029296875 Q 6.24609375 0.791748046875 6.24609375 0.81005859375 Q 6.24609375 0.826904296875 6.2376708984375 0.845947265625 Q 6.229248046875 0.864990234375 6.210205078125 0.8818359375 Q 6.1728515625 0.919921875 6.134033203125 0.9547119140625 Q 6.09521484375 0.989501953125 6.0545654296875 1.0162353515625 Q 6.013916015625 1.04296875 5.972900390625 1.05908203125 Q 5.931884765625 1.0751953125 5.89013671875 1.0751953125 Q 5.830810546875 1.0751953125 5.7967529296875 1.0447998046875 Q 5.7626953125 1.014404296875 5.7626953125 0.949951171875 Q 5.7626953125 0.916259765625 5.772216796875 0.884033203125 Q 5.78173828125 0.851806640625 5.794921875 0.8214111328125 Q 5.80810546875 0.791015625 5.82275390625 0.7628173828125 Q 5.83740234375 0.734619140625 5.84765625 0.708984375 Q 5.851318359375 0.699462890625 5.8604736328125 0.6796875 Q 5.86962890625 0.659912109375 5.8798828125 0.639404296875 Q 5.8916015625 0.615234375 5.90478515625 0.588134765625 M 6.37060546875 0.64453125 Q 6.415283203125 0.66796875 6.450439453125 0.697998046875 Q 6.485595703125 0.72802734375 6.5101318359375 0.7613525390625 Q 6.53466796875 0.794677734375 6.5474853515625 0.8291015625 Q 6.560302734375 0.863525390625 6.560302734375 0.896484375 Q 6.560302734375 0.938232421875 6.5364990234375 0.9715576171875 Q 6.5126953125 1.0048828125 6.4742431640625 1.0279541015625 Q 6.435791015625 1.051025390625 6.3863525390625 1.0631103515625 Q 6.3369140625 1.0751953125 6.286376953125 1.0751953125 Q 6.248291015625 1.0751953125 6.21240234375 1.0667724609375 Q 6.176513671875 1.058349609375 6.1468505859375 1.040771484375 Q 6.1171875 1.023193359375 6.095947265625 0.9957275390625 Q 6.07470703125 0.96826171875 6.06591796875 0.93017578125 Q 6.064453125 0.92431640625 6.064453125 0.920654296875 Q 6.064453125 0.90087890625 6.078369140625 0.8865966796875 Q 6.09228515625 0.872314453125 6.109130859375 0.872314453125 Q 6.1171875 0.872314453125 6.1270751953125 0.875244140625 Q 6.136962890625 0.878173828125 6.14208984375 0.888427734375 Q 6.151611328125 0.906005859375 6.1688232421875 0.919921875 Q 6.18603515625 0.933837890625 6.207275390625 0.9437255859375 Q 6.228515625 0.95361328125 6.2523193359375 0.9591064453125 Q 6.276123046875 0.964599609375 6.298828125 0.964599609375 Q 6.322265625 0.964599609375 6.3438720703125 0.960205078125 Q 6.365478515625 0.955810546875 6.3819580078125 0.9462890625 Q 6.3984375 0.936767578125 6.407958984375 0.922119140625 Q 6.41748046875 0.907470703125 6.41748046875 0.88623046875 Q 6.41748046875 0.848876953125 6.400634765625 0.8173828125 Q 6.3837890625 0.785888671875 6.3570556640625 0.7591552734375 Q 6.330322265625 0.732421875 6.2962646484375 0.7093505859375 Q 6.26220703125 0.686279296875 6.228515625 0.6650390625 Q 6.224853515625 0.662841796875 6.217529296875 0.6522216796875 Q 6.210205078125 0.6416015625 6.210205078125 0.630615234375 Q 6.210205078125 0.621826171875 6.214599609375 0.61669921875 Q 6.226318359375 0.601318359375 6.24169921875 0.585205078125 Q 6.257080078125 0.569091796875 6.274658203125 0.5555419921875 Q 6.292236328125 0.5419921875 6.312744140625 0.5335693359375 Q 6.333251953125 0.525146484375 6.355224609375 0.525146484375 Q 6.371337890625 0.525146484375 6.38525390625 0.529541015625 Q 6.399169921875 0.533935546875 6.40869140625 0.5408935546875 Q 6.418212890625 0.5478515625 6.4237060546875 0.5562744140625 Q 6.42919921875 0.564697265625 6.42919921875 0.572021484375 Q 6.42919921875 0.582275390625 6.424072265625 0.591796875 Q 6.4189453125 0.601318359375 6.4105224609375 0.610107421875 Q 6.402099609375 0.618896484375 6.3914794921875 0.627685546875 Q 6.380859375 0.636474609375 6.37060546875 0.64453125"
                fill="#404040" fill-rule="nonzero" />
        </g>
        <g />
    </g>
    <defs>
        <clipPath id="SvgjsClipPath1002">
            <path
                d=" M -2.971928870615512 -0.5800277108712371 h 2.571928870615512 v 2.216940187367474 h -2.571928870615512 Z" />
        </clipPath>
        <clipPath id="a4fc08157-74c4-49c1-b968-d53d14cc2142c0c02168-45a7-4524-b650-02b6c8f03fc8">
            <path
                d=" M -2.9719340591652585 1.636912476496237 L -0.40000367521663804 1.636912476496237 L -0.40000367521663804 -0.5800303051461102 L -2.9719340591652585 -0.5800303051461102 Z" />
        </clipPath>
    </defs>
</svg>